<svg xmlns="http://www.w3.org/2000/svg" width="1024" height="1024" viewBox="0 0 1024 1024" transform="scale(-1 1)">
  <path d="M485.57 761.25c-12.68-12.51-39.72-39.17-60.07-59.25-20.35-20.07-43.41-42.82-51.25-50.54L360 637.42v-251.4l-7.68-5.26c-4.22-2.89-9.96-7.09-12.75-9.32l-5.07-4.06-.26-59.73-.26-59.73 2.47-2.46 2.46-2.46 34.79.01c19.14.01 35.83.29 37.09.63 4.64 1.24 5.21 4.45 5.21 29.33v23.07l22.75-.27 22.75-.27.5-36.22c.5-36.05.51-36.24 2.78-38.5l2.28-2.28h91.11l2.42 2.81 2.41 2.8v71.93l22.75-.27 22.75-.27.27-23.63.27-23.63 2.65-2.66 2.65-2.65 36.39.28 36.39.29 1.92 2.5c1.84 2.4 1.92 4.87 1.94 60.82.01 37.21-.34 58.99-.99 60.19-.55 1.03-6.4 5.76-13 10.49L665 386.12v124.51c0 85.54-.33 125.19-1.06 126.69-.58 1.2-11.12 12.08-23.43 24.18-12.3 12.1-45.3 44.61-73.33 72.25-49.2 48.5-51.1 50.25-54.76 50.25-3.59 0-4.95-1.15-26.85-22.75M546 552.33V374.15l2.63-2.08c2.6-2.04 3.53-2.07 56.07-2.07h53.44l7.93-5.74 7.93-5.73V261h-48v23.44c0 23.35-.01 23.46-2.41 26.25l-2.42 2.81h-70.01l-2.58-2.42-2.58-2.43V236h-67v72.15l-2.92 2.93-2.93 2.92h-67.94l-3.1-2.9-3.11-2.9V261h-48l.03 48.75.04 48.75 7.84 5.75 7.84 5.75h107.34l2.46 2.45 2.45 2.46v355.93l16.75 16.54 16.75 16.54 16.75-16.7 16.75-16.7zm101-43.08V388h-84v326.49l42-41.99 42-41.99zM462 550.5V388h-85v241.63l41.75 41.68c22.96 22.92 42.09 41.68 42.5 41.68.41.01.75-73.11.75-162.49" fill="#2675f9"/>
</svg>
